<?xml version="1.0" standalone="no"?>
<!DOCTYPE svg PUBLIC "-//W3C//DTD SVG 20010904//EN"
 "http://www.w3.org/TR/2001/REC-SVG-20010904/DTD/svg10.dtd">
<svg version="1.0" xmlns="http://www.w3.org/2000/svg"
 width="200.000000pt" height="200.000000pt" viewBox="0 0 200.000000 200.000000"
 preserveAspectRatio="xMidYMid meet">
<metadata>
Created by potrace 1.11, written by Peter Selinger 2001-2013
</metadata>
<g transform="translate(0.000000,200.000000) scale(0.100000,-0.100000)"
fill="#000000" stroke="none">
<path d="M838 1885 c-345 -66 -626 -331 -709 -670 -31 -126 -32 -306 -1 -428
25 -102 77 -218 128 -289 26 -37 34 -57 30 -74 -6 -22 -53 -73 -136 -146 -41
-37 -43 -97 -2 -137 55 -56 223 -45 365 23 l73 35 84 -34 c431 -174 928 18
1135 438 166 337 107 733 -149 1005 -130 137 -264 219 -431 262 -105 28 -283
35 -387 15z m357 -149 c33 -9 103 -37 155 -63 80 -39 108 -60 185 -137 102
-103 144 -168 189 -293 29 -84 31 -95 31 -243 -1 -144 -3 -161 -28 -235 -38
-109 -98 -207 -176 -288 -149 -155 -337 -237 -544 -237 -121 0 -225 23 -338
76 l-95 45 -60 -39 c-52 -35 -137 -72 -164 -72 -6 0 8 26 30 59 22 32 49 79
60 104 l21 46 -51 63 c-59 73 -121 194 -146 288 -24 89 -25 281 -1 370 21 77
73 191 118 256 105 153 304 280 492 314 72 12 250 5 322 -14z"/>
<path d="M683 1082 c-30 -4 -63 -48 -63 -83 0 -15 11 -40 24 -55 70 -82 193
24 126 108 -20 26 -48 36 -87 30z"/>
<path d="M985 1082 c-37 -7 -65 -43 -65 -81 1 -44 18 -68 58 -82 40 -14 84 8
102 51 25 59 -31 125 -95 112z"/>
<path d="M1264 1076 c-62 -27 -68 -112 -10 -147 57 -35 126 4 126 71 0 62 -59
100 -116 76z"/>
</g>
</svg>
